#!OML:ASF X:\für Bonn\!DataBase\2005_08_10_Bjorn_Final\c3d\bjorn.ASF
:FULLY-SPECIFIED
:DEGREES
168
root -0.692354 18.414 15.5489 -548.093 20.5664 -537.364
lowerback -4.90102 2.17262 6.04739
upperback 9.24073 3.13973 -2.0764
thorax 13.3232 2.50384 -5.10173
lowerneck -2.29821 2.18186 8.00565
upperneck 8.8781 3.04138 -3.85941
head 3.53116 1.72155 -2.59686
rclavicle -3.15074e-014 4.77083e-015
rhumerus 50.5431 22.9262 -77.9713
rradius 69.1926
rwrist 26.9861
rhand -48.0632 34.4879
rfingers 7.12502
rthumb -20.7292 5.575
lclavicle -3.15074e-014 4.77083e-015
lhumerus 30.2297 -23.7543 91.3277
lradius 72.4418
lwrist 39.8323
lhand -29.9158 -10.6611
lfingers 7.12502
lthumb -3.23612 19.2941
rfemur 364.313 -8.20764 -342.141
rtibia 33.9126
rfoot -27.5876 15.4018
rtoes -7.83861
lfemur -17.875 -1.94981 -7.20223
ltibia 52.9697
lfoot -10.4148 8.20127
ltoes -23.9829
169
root -0.704192 18.4084 15.5355 -547.976 20.6999 -537.259
lowerback -4.53479 2.14444 6.29754
upperback 9.33869 3.11128 -2.02947
thorax 13.2219 2.52212 -5.20478
lowerneck -2.34704 2.29496 7.96616
upperneck 8.07534 3.14159 -3.94275
head 3.27015 1.73629 -2.60973
rclavicle -6.19214e-014 5.24792e-014
rhumerus 50.0981 23.2636 -78.0051
rradius 69.6049
rwrist 27.1674
rhand -48.1424 34.3661
rfingers 7.12502
rthumb -20.8052 5.4615
lclavicle -6.19214e-014 5.24792e-014
lhumerus 29.4667 -23.8811 91.4126
lradius 73.1554
lwrist 39.8918
lhand -30.1602 -10.8841
lfingers 7.12502
lthumb -3.47215 19.0673
rfemur 364.223 -8.01964 -342.022
rtibia 33.9416
rfoot -27.8247 15.4642
rtoes -8.17942
lfemur -18.5465 -1.55678 -7.20231
ltibia 53.4598
lfoot -10.4465 7.85053
ltoes -23.5566
170
root -0.715944 18.4003 15.5195 -547.87 20.8412 -537.188
lowerback -4.19582 2.10845 6.51744
upperback 9.45748 3.08007 -1.99422
thorax 13.1606 2.53997 -5.30252
lowerneck -2.42615 2.41289 7.89319
upperneck 7.24584 3.24827 -4.0095
head 3.00758 1.7554 -2.61044
rclavicle 1.0138e-014 -1.59028e-015
rhumerus 49.71 23.6076 -77.9904
rradius 70.0821
rwrist 27.2808
rhand -48.2096 34.3205
rfingers 7.12502
rthumb -20.8698 5.42302
lclavicle 1.0138e-014 -1.59028e-015
lhumerus 28.6882 -24.0041 91.4794
lradius 73.988
lwrist 39.9528
lhand -30.4017 -11.1007
lfingers 7.12502
lthumb -3.70539 18.8468
rfemur 364.12 -7.83121 -341.945
rtibia 34.0154
rfoot -28.0984 15.556
rtoes -8.6794
lfemur -19.1831 -1.27129 -7.21885
ltibia 53.824
lfoot -10.5851 7.3615
ltoes -22.5893
171
root -0.725884 18.3924 15.5004 -547.725 20.9878 -537.113
lowerback -3.89912 2.09133 6.7232
upperback 9.56989 3.07429 -1.96256
thorax 13.1216 2.56877 -5.39064
lowerneck -2.58761 2.52705 7.87951
upperneck 6.48161 3.34734 -4.07882
head 2.78663 1.77598 -2.62372
rclavicle -1.58034e-014 -3.10104e-014
rhumerus 49.3199 23.9118 -77.9744
rradius 70.6409
rwrist 27.3053
rhand -48.2563 34.4302
rfingers 7.12502
rthumb -20.9147 5.53765
lclavicle -1.58034e-014 -3.10104e-014
lhumerus 27.932 -24.1938 91.5314
lradius 74.8392
lwrist 40.062
lhand -30.6457 -11.3381
lfingers 7.12502
lthumb -3.941 18.6052
rfemur 363.971 -7.56987 -341.832
rtibia 34.1126
rfoot -28.402 15.5592
rtoes -9.20608
lfemur -19.8391 -1.05246 -7.1999
ltibia 54.0523
lfoot -10.7565 6.78146
ltoes -21.0596
172
root -0.735812 18.3853 15.4789 -547.586 21.1007 -537.052
lowerback -3.60302 2.05586 6.91291
upperback 9.6844 3.04763 -1.93626
thorax 13.0813 2.58679 -5.47895
lowerneck -2.78663 2.63809 7.87579
upperneck 5.74332 3.4469 -4.19469
head 2.585 1.7986 -2.65495
rclavicle -5.34731e-014 -1.03368e-014
rhumerus 48.9142 24.2198 -77.9882
rradius 71.295
rwrist 27.2327
rhand -48.2174 34.7112
rfingers 7.12502
rthumb -20.8773 5.81455
lclavicle -5.34731e-014 -1.03368e-014
lhumerus 27.205 -24.3891 91.6074
lradius 75.6108
lwrist 40.152
lhand -30.9062 -11.6367
lfingers 7.12502
lthumb -4.19258 18.3018
rfemur 363.837 -7.34082 -341.739
rtibia 34.2152
rfoot -28.7334 15.5201
rtoes -10.0333
lfemur -20.5 -0.933154 -7.18402
ltibia 54.1585
lfoot -10.9127 6.22162
ltoes -19.5813
173
root -0.745984 18.3769 15.4551 -547.436 21.2334 -536.97
lowerback -3.3243 2.03049 7.12812
upperback 9.80823 3.03216 -1.89713
thorax 13.0662 2.61361 -5.56451
lowerneck -3.04536 2.75104 7.82241
upperneck 5.04592 3.5493 -4.25771
head 2.40674 1.82587 -2.65864
rclavicle 4.22417e-014 2.38542e-015
rhumerus 48.4891 24.4981 -77.9874
rradius 72.0436
rwrist 27.1879
rhand -48.1781 35.0385
rfingers 7.12502
rthumb -20.8395 6.13772
lclavicle 4.22417e-014 2.38542e-015
lhumerus 26.5214 -24.6183 91.706
lradius 76.3373
lwrist 40.2014
lhand -31.2252 -11.9434
lfingers 7.12502
lthumb -4.50062 17.9888
rfemur 363.71 -7.0767 -341.617
rtibia 34.3047
rfoot -29.0531 15.4638
rtoes -10.6249
lfemur -21.1492 -0.829374 -7.12632
ltibia 54.154
lfoot -11.0146 5.75994
ltoes -18.2187
174
root -0.755584 18.3699 15.429 -547.257 21.3827 -536.866
lowerback -3.04215 2.02044 7.37173
upperback 9.89175 3.03197 -1.86569
thorax 13.0072 2.64604 -5.67365
lowerneck -3.24429 2.83783 7.81798
upperneck 4.36042 3.62665 -4.35496
head 2.22326 1.84469 -2.68474
rclavicle -2.62396e-014 3.02153e-014
rhumerus 47.9668 24.7655 -78.056
rradius 72.8815
rwrist 27.1312
rhand -48.1528 35.3034
rfingers 7.12502
rthumb -20.8152 6.39996
lclavicle -2.62396e-014 3.02153e-014
lhumerus 25.8029 -24.9038 91.7873
lradius 77.0856
lwrist 40.2429
lhand -31.5932 -12.1562
lfingers 7.12502
lthumb -4.85589 17.7682
rfemur 363.568 -6.74729 -341.446
rtibia 34.3819
rfoot -29.3448 15.3475
rtoes -11.1587
lfemur -21.8008 -0.78568 -7.02623
ltibia 54.0538
lfoot -11.0995 5.49277
ltoes -16.9848
175
root -0.764405 18.3638 15.4005 -547.096 21.5581 -536.77
lowerback -2.75884 2.0047 7.59207
upperback 9.9851 3.02983 -1.83795
thorax 12.9574 2.6769 -5.77381
lowerneck -3.49419 2.94538 7.87377
upperneck 3.73872 3.73154 -4.4801
head 2.0758 1.8804 -2.73066
rclavicle -4.2043e-014 2.3059e-014
rhumerus 47.4483 25.0437 -78.1586
rradius 73.7554
rwrist 27.1318
rhand -48.1071 35.596
rfingers 7.12502
rthumb -20.7714 6.68775
lclavicle -4.2043e-014 2.3059e-014
lhumerus 25.1117 -25.1851 91.8316
lradius 77.8879
lwrist 40.2509
lhand -32.0838 -12.2421
lfingers 7.12502
lthumb -5.32966 17.6709
rfemur 363.463 -6.4132 -341.288
rtibia 34.4435
rfoot -29.6377 15.1801
rtoes -11.8519
lfemur -22.4112 -0.760294 -6.91803
ltibia 53.8709
lfoot -11.1492 5.38951
ltoes -16.3131
